<svg width="449" height="405" viewBox="0 0 449 405" fill="none" xmlns="http://www.w3.org/2000/svg">
<path d="M94.7812 233.682C94.8568 234.895 94.9325 236.108 95.0769 237.987C95.3536 238.999 95.5616 239.346 95.7695 239.693C95.8456 240.902 95.9217 242.111 96.067 243.987C96.3491 244.997 96.562 245.342 96.7748 245.686C97.8394 250.543 98.904 255.399 100.074 260.882C100.18 261.508 100.404 261.941 100.404 261.941C100.405 262.721 100.406 263.501 100.275 264.882C100.156 265.65 100.169 265.817 100.181 265.983C95.6935 275.424 91.3181 284.921 86.6421 294.267C85.4315 296.687 83.2792 298.636 81.0218 300.992C80.484 301.183 80.0807 301.475 80.0807 301.475C77.4834 300.248 74.0584 299.697 72.4172 297.689C56.5819 278.311 41.6631 258.252 32.1163 234.874C29.1154 227.526 26.8834 219.773 25.1657 212.014C22.7327 201.023 24.2006 190.342 28.5315 179.776C39.4228 153.207 51.2309 127.103 68.6248 104.086C84.0484 83.6757 101.626 65.5902 127.972 57.9374C128.988 57.6239 129.327 57.4127 129.666 57.2016C135.194 57.6595 139.823 55.7095 144.514 52.7865C159.172 43.6535 175.452 38.6079 192.939 34.9338C194.009 34.6673 194.362 34.4653 194.716 34.2633C196.239 34.1702 197.763 34.077 199.969 33.909C200.996 33.6299 201.341 33.4256 201.685 33.2212C209.908 33.081 218.135 32.7047 226.351 32.8785C232.42 33.0069 238.474 33.8522 245.139 34.5303C246.153 34.7125 246.563 34.7426 246.972 34.7727C266.554 38.5732 285.113 45.1755 302.069 55.7523C309.359 60.2995 316.48 64.6182 326.167 63.464C327.183 63.6802 327.578 63.7292 327.972 63.7782C328.856 63.9751 329.74 64.172 331.173 64.5482C332.142 64.7691 332.562 64.8106 332.981 64.8521C357.901 74.0099 374.547 92.5757 388.004 114.304C402.093 137.052 412.216 161.669 420.024 187.963C420.364 188.977 420.59 189.309 420.816 189.641C420.614 194.829 420.413 200.017 420.171 205.85C420.131 206.495 420.225 206.978 420.225 206.978C415.862 230.35 404.542 250.618 391.641 270.083C386.142 278.379 379.845 286.155 373.742 294.038C368.179 301.225 362.759 300.499 358.763 292.176C354.668 283.646 350.365 275.199 346.722 266.478C345.485 263.517 345.377 259.752 345.813 256.497C346.58 250.763 348.163 245.139 349.56 238.87C349.743 237.856 349.77 237.44 349.796 237.024C350.002 235.823 350.208 234.622 350.565 232.846C350.743 231.856 350.77 231.44 350.796 231.024C351.002 229.822 351.208 228.619 351.559 226.842C351.728 225.854 351.752 225.441 351.775 225.027C352.505 209.649 353.235 194.27 353.903 178.119C353.648 176.993 353.454 176.641 353.261 176.288C353.164 174.118 353.067 171.948 352.906 169.061C352.648 167.993 352.454 167.641 352.261 167.288C349.967 159.019 347.858 150.69 345.227 142.529C344.678 140.825 342.203 139.742 339.936 138.24C338.608 138.326 337.961 138.544 337.313 138.762C332.48 140.313 330.821 142.897 332.135 147.524C333.173 151.183 334.626 154.725 336.017 158.985C336.359 159.99 336.577 160.33 336.796 160.669C337.191 162.88 337.586 165.091 338.083 167.975C338.388 168.99 338.591 169.332 338.795 169.674C338.873 171.854 338.952 174.033 339.092 176.859C339.153 177.506 339.352 177.953 339.352 177.953C339.313 188.034 339.273 198.114 339.183 208.844C339.132 209.494 339.214 209.98 339.214 209.98C338.959 212.155 338.704 214.33 338.352 217.114C338.242 218.14 338.228 218.557 338.215 218.974C337.359 224.502 336.503 230.03 335.483 236.152C335.284 237.155 335.251 237.565 335.219 237.974C334.05 242.946 333.151 248.001 331.654 252.872C328.907 261.813 331.295 269.76 335.897 277.988C336.217 278.659 336.312 278.798 336.407 278.938C335.266 281.492 334.347 284.176 332.946 286.579C325.627 299.136 317.515 311.206 306.242 320.531C300.558 325.233 293.841 328.735 287.408 332.464C284.19 334.329 280.641 335.516 280.869 340.191C281.085 344.628 283.598 346.701 287.767 347.276C288.066 347.317 288.273 348.052 288.499 348.477C288.508 348.493 288.279 348.672 288.142 348.72C287.989 348.774 287.814 348.765 286.924 348.858C280.105 350.624 274.01 352.316 267.916 354.007C268.794 347.84 269.672 341.674 270.639 334.892C270.739 333.861 270.749 333.446 270.759 333.031C270.617 326.229 270.475 319.426 270.448 312.001C270.663 311.242 270.763 311.105 270.863 310.969C292.614 301.787 310.63 281.912 309.749 258.18C309.439 249.833 307.047 246.024 301.73 246.305C296.759 246.568 295.07 249.727 295.188 258.022C295.228 260.833 294.843 263.649 294.474 267.095C294.237 268.145 294.178 268.563 294.119 268.981C288.743 283.156 278.028 291.894 264.073 298.031C263.494 298.136 263.04 298.322 263.04 298.322C256.858 299.906 251.961 297.298 246.814 294.157C235.898 287.494 229.508 279.159 232.004 265.455C232.994 260.016 229.417 256.773 224.77 256.915C220.352 257.051 217.134 260.162 218.003 265.45C220.142 278.461 214.769 286.687 204.083 293.646C195.665 299.129 188.334 300.396 179.659 295.164C167.718 287.961 157.896 279.247 155.089 264.1C154.913 263.334 154.834 263.183 154.755 263.032C154.81 259.705 154.994 256.374 154.887 253.052C154.753 248.858 152.197 246.681 148.231 246.38C144.396 246.089 141.435 248.09 141.043 251.826C140.511 256.908 140.906 262.086 141.026 267.937C141.373 268.985 141.598 269.32 141.822 269.654C142.562 278.151 146.558 285.426 152.314 291.106C158.977 297.681 166.879 303 174.671 309.191C175.206 309.655 175.313 309.792 175.42 309.929C175.619 318.337 175.819 326.744 176.075 335.829C176.13 336.506 176.322 336.96 176.322 336.96C177.134 342.001 177.945 347.042 178.387 352.418C175.987 352.518 173.956 352.282 171.926 352.047C171.926 352.047 171.992 352.019 171.888 351.706C167.463 349.744 163.142 348.094 158.821 346.444C162.917 346.275 165.879 344.619 166.631 340.274C167.306 336.377 165.342 333.694 161.985 332.381C137.81 322.926 123.219 303.618 110.114 281.87C109.866 280.503 109.851 279.767 109.835 279.031C111.558 273.298 113.28 267.566 114.937 261.088C114.669 259.991 114.466 259.637 114.264 259.284C113.185 254.105 112.106 248.926 110.917 243.055C110.595 242.035 110.383 241.706 110.171 241.377C109.787 238.506 109.403 235.635 108.943 232.055C108.656 230.997 108.446 230.65 108.236 230.302C108.155 229.095 108.074 227.889 107.941 226.013C107.701 224.984 107.511 224.624 107.321 224.264C107.209 222.104 107.097 219.943 106.93 217.064C106.685 215.986 106.493 215.628 106.302 215.27C106.123 204.802 105.944 194.335 105.808 183.187C105.852 182.507 105.777 182.021 105.777 182.021C106.012 180.172 106.246 178.323 106.599 175.873C106.736 174.856 106.756 174.442 106.776 174.027C108.689 166.865 110.437 159.654 112.566 152.557C114.223 147.035 113.095 142.497 109.177 141.075C104.771 139.476 100.58 141.785 98.8683 147.616C96.4563 155.83 94.6187 164.213 92.4126 173.127C92.2678 174.145 92.2458 174.559 92.2238 174.973C92.1555 188.711 92.0872 202.449 92.0895 216.92C92.3572 218.004 92.5543 218.355 92.7514 218.706C92.8392 220.552 92.9271 222.398 93.0735 224.951C93.3271 226.012 93.522 226.368 93.7169 226.724C93.8142 228.244 93.9114 229.765 94.0835 231.968C94.366 232.995 94.5736 233.339 94.7812 233.682ZM215.708 250.252C223.138 250.497 230.568 250.743 238.749 251.159C242.749 250.591 246.982 250.655 250.693 249.296C255.483 247.542 259.884 244.702 264.4 242.232C269.475 239.457 270.656 236.419 268.554 231.094C266.481 225.843 263.95 220.767 262.014 215.47C258.93 207.036 253.278 203.263 244.171 203.485C230.699 203.814 217.21 203.345 203.729 203.422C197.067 203.46 191.723 206.316 189.048 212.638C186.14 219.512 183.573 226.54 181.109 233.589C179.947 236.912 179.983 240.915 183.549 242.39C193.557 246.53 202.819 254.307 215.708 250.252ZM283.781 159.423C287.703 161.608 291.399 164.551 295.599 165.81C302.958 168.016 308.869 163.466 310.515 155.317C311.982 148.057 306.846 140.375 299.511 138.855C291.378 137.17 285.349 140.917 284.115 148.732C283.602 151.981 283.762 155.337 283.781 159.423ZM149.893 157.315C153.713 166.06 158.601 168.244 167.255 165.071C176.271 161.767 177.467 159.632 175.978 149.5C174.805 141.512 169.681 137.641 161.639 138.669C153.095 139.76 148.088 147.244 149.893 157.315Z" fill="#F3A942"/>
<path d="M234.044 374.312C230.318 374.274 226.593 374.236 222.094 374.155C220.891 374.138 220.46 374.165 220.029 374.191C216.144 373.347 212.246 372.557 208.376 371.647C202.075 370.167 198.559 365.551 196.354 360.002C194.529 355.408 193.453 350.516 191.965 345.048C191.666 344 191.447 343.66 191.228 343.32C191.148 341.79 191.068 340.261 190.938 338.114C190.888 337.497 190.722 337.037 190.722 337.037C190.466 333.31 190.21 329.583 189.93 325.092C189.829 323.906 189.752 323.484 189.675 323.063C189.72 320.328 189.766 317.594 189.941 314.214C190.14 313.411 190.21 313.255 190.279 313.098C197.963 313.751 204.609 311.033 210.652 306.622C214.534 303.788 218.337 300.825 221.992 297.705C224.17 295.845 225.834 295.84 228.027 297.69C231.953 301.004 235.881 304.405 240.217 307.115C243.95 309.45 248.253 310.873 252.898 312.81C253.492 312.92 253.983 312.841 253.983 312.841C254.65 313.352 255.316 313.862 256.04 314.938C256.098 315.503 256.261 315.966 256.261 315.966C256.236 321.711 256.211 327.456 256.143 333.849C256.1 334.497 256.189 334.98 256.189 334.98C256.021 336.856 255.854 338.732 255.529 341.198C255.319 342.181 255.266 342.574 255.213 342.968C253.016 350.015 250.969 357.113 248.574 364.093C246.518 370.085 242.208 373.529 235.122 374.069C234.496 374.128 234.044 374.312 234.044 374.312Z" fill="#E85946"/>
<path d="M214.905 249.964C202.819 254.307 193.557 246.53 183.549 242.39C179.983 240.915 179.947 236.912 181.109 233.589C183.573 226.54 186.14 219.512 189.048 212.638C191.723 206.316 197.067 203.46 203.729 203.422C217.21 203.345 230.699 203.814 244.171 203.485C253.278 203.263 258.93 207.036 262.014 215.47C263.95 220.767 266.481 225.843 268.554 231.094C270.656 236.419 269.475 239.457 264.4 242.232C259.884 244.702 255.483 247.542 250.693 249.296C246.982 250.655 242.749 250.591 238.16 250.816C232.187 247.902 228.44 243.914 229.144 237.704C229.404 235.414 231.606 232.267 233.638 231.556C235.694 230.836 238.728 232.427 241.147 233.448C242.192 233.888 242.769 235.439 243.686 236.656C246.695 235.108 249.619 233.604 252.911 231.911C251.514 228.541 250.012 225.588 249.069 222.467C248.017 218.988 246.018 217.897 242.462 217.994C233.98 218.225 225.487 218.009 216.999 218.091C212.205 218.138 206.347 216.802 202.931 219.059C199.743 221.166 199.143 227.198 197.435 231.515C197.333 231.773 197.505 232.139 197.586 232.713C201.943 234.743 206.054 238.325 210.811 232.394C211.839 231.112 216.694 231.255 218.354 232.561C220.222 234.032 221.781 237.962 221.128 240.106C220.034 243.691 217.077 246.708 214.905 249.964Z" fill="#020100"/>
<path d="M215.307 250.108C217.077 246.708 220.034 243.691 221.128 240.106C221.781 237.962 220.222 234.032 218.354 232.561C216.694 231.255 211.839 231.112 210.811 232.394C206.054 238.325 201.943 234.743 197.586 232.713C197.505 232.139 197.333 231.773 197.435 231.515C199.143 227.198 199.743 221.166 202.931 219.059C206.347 216.802 212.205 218.138 216.999 218.091C225.487 218.009 233.98 218.225 242.462 217.994C246.018 217.897 248.017 218.988 249.069 222.467C250.012 225.588 251.514 228.541 252.911 231.911C249.619 233.604 246.695 235.108 243.686 236.656C242.769 235.439 242.192 233.888 241.147 233.448C238.728 232.427 235.694 230.836 233.638 231.556C231.606 232.267 229.404 235.414 229.144 237.704C228.44 243.914 232.187 247.902 237.785 250.731C230.568 250.743 223.138 250.497 215.307 250.108Z" fill="#3E3E3D"/>
<path d="M283.698 159.034C283.762 155.337 283.602 151.981 284.115 148.732C285.349 140.917 291.378 137.17 299.511 138.855C306.846 140.375 311.982 148.057 310.515 155.317C308.869 163.466 302.958 168.016 295.599 165.81C291.399 164.551 287.703 161.608 283.698 159.034Z" fill="#030201"/>
<path d="M149.784 156.932C148.088 147.244 153.095 139.76 161.639 138.669C169.681 137.641 174.805 141.512 175.978 149.5C177.467 159.632 176.271 161.767 167.255 165.071C158.601 168.244 153.713 166.06 149.784 156.932Z" fill="#030201"/>
</svg>
