<svg fill="none" xmlns="http://www.w3.org/2000/svg" height="16px" width="16px" viewBox="0 0 40 40"><g clip-path="url(#a)"><path d="M11.081 30.527l-4.72 4.721a.933.933 0 0 1-1.317 0l-.292-.292a.933.933 0 0 1 0-1.316l4.72-4.721a.933.933 0 0 1 1.318 0l.291.291a.93.93 0 0 1 0 1.317z" fill="#FBBC04"></path><path d="M23.75 32.5h6.042a6.04 6.04 0 0 0 6.041-6.042v-16.25a6.04 6.04 0 0 0-6.041-6.041 6.04 6.04 0 0 0-6.042 6.041V32.5z" fill="#4285F4"></path><path d="M13.75 32.5a6.04 6.04 0 0 0 6.042-6.042 6.04 6.04 0 0 0-6.042-6.041 6.04 6.04 0 0 0-6.042 6.041A6.04 6.04 0 0 0 13.75 32.5z" fill="#FBBC04"></path><path d="M27.97 32.5h-5.887a6.04 6.04 0 0 1-6.041-6.042v-7.916a6.04 6.04 0 0 1 6.041-6.042 6.04 6.04 0 0 1 6.042 6.042v13.804a.154.154 0 0 1-.154.154z" fill="#34A853"></path><path d="M28.125 32.346V18.542a6.042 6.042 0 0 0-4.375-5.807V32.5h4.22a.154.154 0 0 0 .155-.154z" fill="#1967D2"></path><path d="M19.792 26.575a6.04 6.04 0 0 0-3.75-5.59v5.59c0 1.72.72 3.273 1.875 4.373a6.024 6.024 0 0 0 1.875-4.373z" fill="#EA4335"></path></g></svg>