<?xml version="1.0" encoding="UTF-8"?><svg id="Layer_1" xmlns="http://www.w3.org/2000/svg" viewBox="0 0 136.04 127.36"><defs><style>.cls-1{fill:#fff;}</style></defs><path d="M4.95,44.73c-5.1,2.01-6.85,7.27-2.4,11.72l21.5,20.74c.29.26.48.6.55.99l7.73,43.83c.88,5.01,7.3,6.61,10.43,2.59l12.76-16.39c.43-.54,1.22-.62,1.74-.15l18.51,15.54c5.26,5.26,11.32,5.26,14.16-1.58L135.22,13.98c3.23-7.84-3.24-17.8-16.6-12.48"/><path class="cls-1" d="M34.17,71.78c25.02-14.77,45.18-31.68,67.99-45.66,2.04-1.25,3.82,1.22,2.05,2.83-5.16,4.7-10.32,9.42-11.56,10.6-2.65,2.53-33.08,27.9-33.08,27.9l-15.76,12.97c3.24,4.85,31.51,31.79,38.06,34.29,16.72-36.14,31.9-69.61,44.07-101.86.94-2.48-1.52-4.86-3.98-3.87l-74.62,30.15-35.06,13.65,21.89,19Z"/></svg>